<?xml version="1.0" encoding="UTF-8" standalone="no"?>
<!DOCTYPE svg PUBLIC "-//W3C//DTD SVG 1.1//EN"
 "http://www.w3.org/Graphics/SVG/1.1/DTD/svg11.dtd">
<!-- Generated by graphviz version 2.40.1 (20161225.0304)
 -->
<!-- Title: G Pages: 1 -->
<svg width="1296pt" height="1124pt"
 viewBox="0.00 0.00 1296.00 1124.00" xmlns="http://www.w3.org/2000/svg" xmlns:xlink="http://www.w3.org/1999/xlink">
<g id="graph0" class="graph" transform="scale(1 1) rotate(0) translate(4 1120)">
<title>G</title>
<polygon fill="#ffffff" stroke="transparent" points="-4,4 -4,-1120 1292,-1120 1292,4 -4,4"/>
<!-- v0 -->
<g id="node1" class="node">
<title>v0</title>
<ellipse fill="none" stroke="#000000" cx="621" cy="-1098" rx="27" ry="18"/>
<text text-anchor="middle" x="621" y="-1094.3" font-family="Times,serif" font-size="14.00" fill="#000000">v0</text>
</g>
<!-- v1 -->
<g id="node2" class="node">
<title>v1</title>
<ellipse fill="#ff0000" stroke="#000000" cx="376" cy="-1026" rx="27" ry="18"/>
<text text-anchor="middle" x="376" y="-1022.3" font-family="Times,serif" font-size="14.00" fill="#000000">v1</text>
</g>
<!-- v0&#45;&#45;v1 -->
<g id="edge1" class="edge">
<title>v0&#45;&#45;v1</title>
<path fill="none" stroke="#000000" d="M596.1598,-1090.7C549.2019,-1076.9002 447.9145,-1047.1341 400.9059,-1033.3193"/>
</g>
<!-- v3 -->
<g id="node3" class="node">
<title>v3</title>
<ellipse fill="#ff0000" stroke="#000000" cx="376" cy="-882" rx="27" ry="18"/>
<text text-anchor="middle" x="376" y="-878.3" font-family="Times,serif" font-size="14.00" fill="#000000">v3</text>
</g>
<!-- v0&#45;&#45;v3 -->
<g id="edge2" class="edge">
<title>v0&#45;&#45;v3</title>
<path fill="none" stroke="#000000" d="M601.6597,-1085.1591C586.1857,-1074.6312 564.1503,-1059.0616 546,-1044 485.4493,-993.7535 419.574,-927.1926 390.8181,-897.4752"/>
</g>
<!-- v4 -->
<g id="node4" class="node">
<title>v4</title>
<ellipse fill="#ff0000" stroke="#000000" cx="424" cy="-810" rx="27" ry="18"/>
<text text-anchor="middle" x="424" y="-806.3" font-family="Times,serif" font-size="14.00" fill="#000000">v4</text>
</g>
<!-- v0&#45;&#45;v4 -->
<g id="edge3" class="edge">
<title>v0&#45;&#45;v4</title>
<path fill="none" stroke="#000000" d="M609.5569,-1081.2711C574.6566,-1030.2493 469.842,-877.0178 435.2292,-826.4162"/>
</g>
<!-- v6 -->
<g id="node5" class="node">
<title>v6</title>
<ellipse fill="#ff0000" stroke="#000000" cx="532" cy="-666" rx="27" ry="18"/>
<text text-anchor="middle" x="532" y="-662.3" font-family="Times,serif" font-size="14.00" fill="#000000">v6</text>
</g>
<!-- v0&#45;&#45;v6 -->
<g id="edge4" class="edge">
<title>v0&#45;&#45;v6</title>
<path fill="none" stroke="#000000" d="M617.0632,-1079.9156C611.498,-1052.7281 602,-999.6422 602,-954 602,-954 602,-954 602,-810 602,-758.853 565.8379,-706.8392 545.4967,-681.6272"/>
</g>
<!-- v8 -->
<g id="node6" class="node">
<title>v8</title>
<ellipse fill="#ff0000" stroke="#000000" cx="635" cy="-522" rx="27" ry="18"/>
<text text-anchor="middle" x="635" y="-518.3" font-family="Times,serif" font-size="14.00" fill="#000000">v8</text>
</g>
<!-- v0&#45;&#45;v8 -->
<g id="edge5" class="edge">
<title>v0&#45;&#45;v8</title>
<path fill="none" stroke="#000000" d="M625.3512,-1079.9379C631.5022,-1052.7787 642,-999.7286 642,-954 642,-954 642,-954 642,-666 642,-620.6966 638.5007,-567.4704 636.4504,-540.1716"/>
</g>
<!-- v10 -->
<g id="node7" class="node">
<title>v10</title>
<ellipse fill="#ff0000" stroke="#000000" cx="722" cy="-378" rx="27" ry="18"/>
<text text-anchor="middle" x="722" y="-374.3" font-family="Times,serif" font-size="14.00" fill="#000000">v10</text>
</g>
<!-- v0&#45;&#45;v10 -->
<g id="edge6" class="edge">
<title>v0&#45;&#45;v10</title>
<path fill="none" stroke="#000000" d="M634.6322,-1081.9257C654.7409,-1056.5167 690,-1004.731 690,-954 690,-954 690,-954 690,-522 690,-475.6462 705.9966,-422.8549 715.3696,-395.9012"/>
</g>
<!-- v12 -->
<g id="node8" class="node">
<title>v12</title>
<ellipse fill="#ff0000" stroke="#000000" cx="798" cy="-234" rx="27" ry="18"/>
<text text-anchor="middle" x="798" y="-230.3" font-family="Times,serif" font-size="14.00" fill="#000000">v12</text>
</g>
<!-- v0&#45;&#45;v12 -->
<g id="edge7" class="edge">
<title>v0&#45;&#45;v12</title>
<path fill="none" stroke="#000000" d="M641.9027,-1086.3369C646.7514,-1083.9754 651.9684,-1081.6988 657,-1080 784.6408,-1036.9048 1250,-1088.7196 1250,-954 1250,-954 1250,-954 1250,-450 1250,-354.7656 919.2143,-264.3967 823.5966,-240.2638"/>
</g>
<!-- v14 -->
<g id="node9" class="node">
<title>v14</title>
<ellipse fill="#ff0000" stroke="#000000" cx="872" cy="-90" rx="27" ry="18"/>
<text text-anchor="middle" x="872" y="-86.3" font-family="Times,serif" font-size="14.00" fill="#000000">v14</text>
</g>
<!-- v0&#45;&#45;v14 -->
<g id="edge8" class="edge">
<title>v0&#45;&#45;v14</title>
<path fill="none" stroke="#000000" d="M641.3859,-1086.0825C646.3476,-1083.6727 651.7431,-1081.4394 657,-1080 874.8803,-1020.3404 951.7457,-1121.3254 1164,-1044 1227.9836,-1020.6904 1288,-1022.0972 1288,-954 1288,-954 1288,-954 1288,-450 1288,-241.7866 986.334,-127.1295 896.7769,-97.6784"/>
</g>
<!-- v2 -->
<g id="node10" class="node">
<title>v2</title>
<ellipse fill="none" stroke="#000000" cx="376" cy="-954" rx="27" ry="18"/>
<text text-anchor="middle" x="376" y="-950.3" font-family="Times,serif" font-size="14.00" fill="#000000">v2</text>
</g>
<!-- v1&#45;&#45;v2 -->
<g id="edge9" class="edge">
<title>v1&#45;&#45;v2</title>
<path fill="none" stroke="#000000" d="M376,-1007.8314C376,-997 376,-983.2876 376,-972.4133"/>
</g>
<!-- v15 -->
<g id="node11" class="node">
<title>v15</title>
<ellipse fill="none" stroke="#000000" cx="133" cy="-18" rx="27" ry="18"/>
<text text-anchor="middle" x="133" y="-14.3" font-family="Times,serif" font-size="14.00" fill="#000000">v15</text>
</g>
<!-- v1&#45;&#45;v15 -->
<g id="edge10" class="edge">
<title>v1&#45;&#45;v15</title>
<path fill="none" stroke="#000000" d="M349.5604,-1021.7846C263.9748,-1007.4031 0,-956.9691 0,-882 0,-882 0,-882 0,-162 0,-97.3396 73.262,-49.3382 111.0378,-28.8853"/>
</g>
<!-- v16 -->
<g id="node12" class="node">
<title>v16</title>
<ellipse fill="none" stroke="#000000" cx="342" cy="-18" rx="27" ry="18"/>
<text text-anchor="middle" x="342" y="-14.3" font-family="Times,serif" font-size="14.00" fill="#000000">v16</text>
</g>
<!-- v1&#45;&#45;v16 -->
<g id="edge11" class="edge">
<title>v1&#45;&#45;v16</title>
<path fill="none" stroke="#000000" d="M349.4246,-1021.7835C290.0894,-1010.7005 152,-974.9252 152,-882 152,-882 152,-882 152,-594 152,-392.1107 164.4738,-339.7204 214,-144 222.3838,-110.8683 218.4831,-97.7097 241,-72 261.4365,-48.6657 294.4712,-33.7178 317.1611,-25.6003"/>
</g>
<!-- v17 -->
<g id="node13" class="node">
<title>v17</title>
<ellipse fill="none" stroke="#000000" cx="627" cy="-18" rx="27" ry="18"/>
<text text-anchor="middle" x="627" y="-14.3" font-family="Times,serif" font-size="14.00" fill="#000000">v17</text>
</g>
<!-- v1&#45;&#45;v17 -->
<g id="edge12" class="edge">
<title>v1&#45;&#45;v17</title>
<path fill="none" stroke="#000000" d="M357.4069,-1012.8239C327.4928,-989.9227 272,-939.6677 272,-882 272,-882 272,-882 272,-810 272,-721.2731 529.1628,-146.7266 577,-72 586.3684,-57.3656 599.8942,-43.04 610.5162,-32.8253"/>
</g>
<!-- v18 -->
<g id="node14" class="node">
<title>v18</title>
<ellipse fill="none" stroke="#000000" cx="1079" cy="-18" rx="27" ry="18"/>
<text text-anchor="middle" x="1079" y="-14.3" font-family="Times,serif" font-size="14.00" fill="#000000">v18</text>
</g>
<!-- v1&#45;&#45;v18 -->
<g id="edge13" class="edge">
<title>v1&#45;&#45;v18</title>
<path fill="none" stroke="#000000" d="M403.3399,-1024.2532C547.419,-1014.6928 1212,-966.0395 1212,-882 1212,-882 1212,-882 1212,-450 1212,-313.5823 1217.5734,-277.1735 1188,-144 1180.5911,-110.6367 1182.3193,-98.7112 1161,-72 1145.1564,-52.1494 1119.9774,-37.1131 1101.6972,-28.0115"/>
</g>
<!-- v19 -->
<g id="node15" class="node">
<title>v19</title>
<ellipse fill="none" stroke="#000000" cx="939" cy="-18" rx="27" ry="18"/>
<text text-anchor="middle" x="939" y="-14.3" font-family="Times,serif" font-size="14.00" fill="#000000">v19</text>
</g>
<!-- v1&#45;&#45;v19 -->
<g id="edge14" class="edge">
<title>v1&#45;&#45;v19</title>
<path fill="none" stroke="#000000" d="M402.9354,-1022.9251C525.1958,-1008.6135 1022,-946.4906 1022,-882 1022,-882 1022,-882 1022,-162 1022,-108.6173 978.6547,-57.1879 954.6117,-32.7668"/>
</g>
<!-- v3&#45;&#45;v4 -->
<g id="edge16" class="edge">
<title>v3&#45;&#45;v4</title>
<path fill="none" stroke="#000000" d="M387.1328,-865.3008C394.8873,-853.669 405.1863,-838.2206 412.9276,-826.6087"/>
</g>
<!-- v3&#45;&#45;v15 -->
<g id="edge17" class="edge">
<title>v3&#45;&#45;v15</title>
<path fill="none" stroke="#000000" d="M350.0389,-876.81C270.892,-860.2517 38,-805.7706 38,-738 38,-738 38,-738 38,-162 38,-106.2924 88.1498,-55.5183 115.5755,-31.9164"/>
</g>
<!-- v3&#45;&#45;v16 -->
<g id="edge18" class="edge">
<title>v3&#45;&#45;v16</title>
<path fill="none" stroke="#000000" d="M352.875,-872.4059C311.25,-853.4158 228,-806.8315 228,-738 228,-738 228,-738 228,-162 228,-102.0545 289.481,-52.4938 322.1427,-30.3942"/>
</g>
<!-- v3&#45;&#45;v17 -->
<g id="edge19" class="edge">
<title>v3&#45;&#45;v17</title>
<path fill="none" stroke="#000000" d="M377.6112,-863.9367C379.4268,-845.6688 382.8191,-816.6834 388,-792 456.4221,-466.0178 465.9269,-378.6382 596,-72 601.5723,-58.8638 609.6401,-44.9174 616.1484,-34.4888"/>
</g>
<!-- v3&#45;&#45;v18 -->
<g id="edge20" class="edge">
<title>v3&#45;&#45;v18</title>
<path fill="none" stroke="#000000" d="M403.0081,-880.0546C542.4035,-869.663 1174,-818.1562 1174,-738 1174,-738 1174,-738 1174,-162 1174,-106.2924 1123.8502,-55.5183 1096.4245,-31.9164"/>
</g>
<!-- v4&#45;&#45;v15 -->
<g id="edge22" class="edge">
<title>v4&#45;&#45;v15</title>
<path fill="none" stroke="#000000" d="M405.29,-796.7809C333.0068,-744.0095 76,-539.9297 76,-306 76,-306 76,-306 76,-162 76,-112.7962 105.1271,-60.3542 121.7386,-34.4469"/>
</g>
<!-- v4&#45;&#45;v16 -->
<g id="edge23" class="edge">
<title>v4&#45;&#45;v16</title>
<path fill="none" stroke="#000000" d="M411.8334,-793.7949C381.3259,-751.4984 304,-633.3125 304,-522 304,-522 304,-522 304,-450 304,-352.5257 266,-331.4743 266,-234 266,-234 266,-234 266,-162 266,-109.9864 305.2617,-58.3517 327.3464,-33.4216"/>
</g>
<!-- v4&#45;&#45;v17 -->
<g id="edge24" class="edge">
<title>v4&#45;&#45;v17</title>
<path fill="none" stroke="#000000" d="M428.0844,-792.1926C447.0682,-709.795 529.1808,-357.4135 610,-72 613.4276,-59.8953 617.6776,-46.3953 621.0707,-35.9215"/>
</g>
<!-- v4&#45;&#45;v18 -->
<g id="edge25" class="edge">
<title>v4&#45;&#45;v18</title>
<path fill="none" stroke="#000000" d="M450.8375,-807.1827C576.1934,-793.671 1098,-733.3806 1098,-666 1098,-666 1098,-666 1098,-162 1098,-116.3578 1088.502,-63.2719 1082.9368,-36.0844"/>
</g>
<!-- v5 -->
<g id="node16" class="node">
<title>v5</title>
<ellipse fill="none" stroke="#000000" cx="522" cy="-738" rx="27" ry="18"/>
<text text-anchor="middle" x="522" y="-734.3" font-family="Times,serif" font-size="14.00" fill="#000000">v5</text>
</g>
<!-- v4&#45;&#45;v5 -->
<g id="edge21" class="edge">
<title>v4&#45;&#45;v5</title>
<path fill="none" stroke="#000000" d="M442.4331,-796.4574C459.9539,-783.5849 486.1561,-764.3343 503.6496,-751.4819"/>
</g>
<!-- v6&#45;&#45;v15 -->
<g id="edge28" class="edge">
<title>v6&#45;&#45;v15</title>
<path fill="none" stroke="#000000" d="M516.3907,-651.3031C475.6429,-612.4012 364.0931,-502.4199 290,-396 203.5158,-271.7827 152.2594,-92.5904 137.4805,-35.8976"/>
</g>
<!-- v6&#45;&#45;v16 -->
<g id="edge29" class="edge">
<title>v6&#45;&#45;v16</title>
<path fill="none" stroke="#000000" d="M526.8194,-648.3315C499.7283,-555.9365 374.5605,-129.0484 347.2655,-35.958"/>
</g>
<!-- v6&#45;&#45;v17 -->
<g id="edge30" class="edge">
<title>v6&#45;&#45;v17</title>
<path fill="none" stroke="#000000" d="M534.64,-647.9925C548.29,-554.8848 610.7532,-128.8204 624.3728,-35.9205"/>
</g>
<!-- v6&#45;&#45;v18 -->
<g id="edge31" class="edge">
<title>v6&#45;&#45;v18</title>
<path fill="none" stroke="#000000" d="M559.126,-665.4409C676.654,-662.301 1136,-642.3318 1136,-522 1136,-522 1136,-522 1136,-162 1136,-120.6022 1128.2954,-110.0557 1112,-72 1106.2913,-58.668 1097.696,-44.7277 1090.7087,-34.351"/>
</g>
<!-- v7 -->
<g id="node17" class="node">
<title>v7</title>
<ellipse fill="none" stroke="#000000" cx="587" cy="-594" rx="27" ry="18"/>
<text text-anchor="middle" x="587" y="-590.3" font-family="Times,serif" font-size="14.00" fill="#000000">v7</text>
</g>
<!-- v6&#45;&#45;v7 -->
<g id="edge27" class="edge">
<title>v6&#45;&#45;v7</title>
<path fill="none" stroke="#000000" d="M544.4804,-649.6621C553.4814,-637.8788 565.5793,-622.0416 574.569,-610.2733"/>
</g>
<!-- v8&#45;&#45;v15 -->
<g id="edge34" class="edge">
<title>v8&#45;&#45;v15</title>
<path fill="none" stroke="#000000" d="M617.5313,-508.239C569.2914,-469.9078 430.9957,-357.7749 328,-252 253.2935,-175.2777 174.7624,-73.5173 145.2016,-34.3355"/>
</g>
<!-- v8&#45;&#45;v16 -->
<g id="edge35" class="edge">
<title>v8&#45;&#45;v16</title>
<path fill="none" stroke="#000000" d="M625.4799,-505.042C615.2859,-486.9208 598.6029,-457.3713 584,-432 494.9172,-277.2266 385.219,-91.1664 351.9938,-34.9096"/>
</g>
<!-- v8&#45;&#45;v17 -->
<g id="edge36" class="edge">
<title>v8&#45;&#45;v17</title>
<path fill="none" stroke="#000000" d="M634.7105,-503.7646C633.4612,-425.0553 628.5377,-114.8721 627.2891,-36.2109"/>
</g>
<!-- v8&#45;&#45;v18 -->
<g id="edge37" class="edge">
<title>v8&#45;&#45;v18</title>
<path fill="none" stroke="#000000" d="M661.9081,-518.837C755.3317,-507.1183 1060,-462.4295 1060,-378 1060,-378 1060,-378 1060,-162 1060,-116.3578 1069.498,-63.2719 1075.0632,-36.0844"/>
</g>
<!-- v9 -->
<g id="node18" class="node">
<title>v9</title>
<ellipse fill="none" stroke="#000000" cx="745" cy="-450" rx="27" ry="18"/>
<text text-anchor="middle" x="745" y="-446.3" font-family="Times,serif" font-size="14.00" fill="#000000">v9</text>
</g>
<!-- v8&#45;&#45;v9 -->
<g id="edge33" class="edge">
<title>v8&#45;&#45;v9</title>
<path fill="none" stroke="#000000" d="M654.4126,-509.2936C674.3961,-496.2135 705.3638,-475.9437 725.4115,-462.8216"/>
</g>
<!-- v10&#45;&#45;v15 -->
<g id="edge41" class="edge">
<title>v10&#45;&#45;v15</title>
<path fill="none" stroke="#000000" d="M702.0654,-365.8159C611.9388,-310.73 243.046,-85.2607 152.9296,-30.1811"/>
</g>
<!-- v10&#45;&#45;v16 -->
<g id="edge42" class="edge">
<title>v10&#45;&#45;v16</title>
<path fill="none" stroke="#000000" d="M712.2309,-361.1135C700.9206,-342.2703 681.122,-311.3641 660,-288 558.9771,-176.2533 412.1867,-67.8528 360.6919,-31.1312"/>
</g>
<!-- v10&#45;&#45;v17 -->
<g id="edge43" class="edge">
<title>v10&#45;&#45;v17</title>
<path fill="none" stroke="#000000" d="M720.5317,-359.7881C716.165,-311.3952 700.9174,-176.1854 660,-72 654.6984,-58.5009 646.0904,-44.5658 638.9953,-34.2334"/>
</g>
<!-- v10&#45;&#45;v18 -->
<g id="edge44" class="edge">
<title>v10&#45;&#45;v18</title>
<path fill="none" stroke="#000000" d="M749.0518,-375.8006C815.9923,-368.7348 984,-340.4024 984,-234 984,-234 984,-234 984,-162 984,-106.2924 1034.1498,-55.5183 1061.5755,-31.9164"/>
</g>
<!-- v11 -->
<g id="node19" class="node">
<title>v11</title>
<ellipse fill="none" stroke="#000000" cx="788" cy="-306" rx="27" ry="18"/>
<text text-anchor="middle" x="788" y="-302.3" font-family="Times,serif" font-size="14.00" fill="#000000">v11</text>
</g>
<!-- v10&#45;&#45;v11 -->
<g id="edge40" class="edge">
<title>v10&#45;&#45;v11</title>
<path fill="none" stroke="#000000" d="M736.321,-362.3771C747.3914,-350.3003 762.6436,-333.6616 773.7069,-321.5924"/>
</g>
<!-- v12&#45;&#45;v15 -->
<g id="edge47" class="edge">
<title>v12&#45;&#45;v15</title>
<path fill="none" stroke="#000000" d="M774.8381,-224.4454C709.7075,-197.8116 519.069,-121.4524 356,-72 285.6689,-50.6713 200.8844,-32.0376 159.0106,-23.2928"/>
</g>
<!-- v12&#45;&#45;v16 -->
<g id="edge48" class="edge">
<title>v12&#45;&#45;v16</title>
<path fill="none" stroke="#000000" d="M790.3062,-216.5036C780.5203,-196.2127 761.7475,-163.1119 736,-144 618.0745,-56.4661 437.1316,-28.3774 369.1028,-20.6185"/>
</g>
<!-- v12&#45;&#45;v17 -->
<g id="edge49" class="edge">
<title>v12&#45;&#45;v17</title>
<path fill="none" stroke="#000000" d="M796.0407,-215.9962C791.5038,-182.9342 777.2978,-112.2519 736,-72 711.9538,-48.5629 675.73,-33.4081 651.7314,-25.2886"/>
</g>
<!-- v12&#45;&#45;v18 -->
<g id="edge50" class="edge">
<title>v12&#45;&#45;v18</title>
<path fill="none" stroke="#000000" d="M820.5639,-223.7392C840.0341,-214.1911 868.2186,-198.6511 889,-180 933.6534,-139.9241 923.8643,-110.3601 970,-72 995.6571,-50.6671 1031.164,-35.0973 1054.5891,-26.3029"/>
</g>
<!-- v13 -->
<g id="node20" class="node">
<title>v13</title>
<ellipse fill="none" stroke="#000000" cx="853" cy="-162" rx="27" ry="18"/>
<text text-anchor="middle" x="853" y="-158.3" font-family="Times,serif" font-size="14.00" fill="#000000">v13</text>
</g>
<!-- v12&#45;&#45;v13 -->
<g id="edge46" class="edge">
<title>v12&#45;&#45;v13</title>
<path fill="none" stroke="#000000" d="M810.4804,-217.6621C819.4814,-205.8788 831.5793,-190.0416 840.569,-178.2733"/>
</g>
<!-- v14&#45;&#45;v15 -->
<g id="edge52" class="edge">
<title>v14&#45;&#45;v15</title>
<path fill="none" stroke="#000000" d="M845.1824,-87.5236C763.9587,-80.0054 513.4959,-56.6924 306,-36 254.1675,-30.831 193.6377,-24.4553 159.6659,-20.846"/>
</g>
<!-- v14&#45;&#45;v16 -->
<g id="edge53" class="edge">
<title>v14&#45;&#45;v16</title>
<path fill="none" stroke="#000000" d="M845.354,-86.3802C754.777,-74.0754 459.356,-33.9427 368.699,-21.627"/>
</g>
<!-- v14&#45;&#45;v17 -->
<g id="edge54" class="edge">
<title>v14&#45;&#45;v17</title>
<path fill="none" stroke="#000000" d="M847.1993,-82.5146C836.3929,-79.2647 823.5753,-75.4256 812,-72 754.732,-55.052 687.3829,-35.4849 651.8535,-25.1908"/>
</g>
<!-- v14&#45;&#45;v18 -->
<g id="edge55" class="edge">
<title>v14&#45;&#45;v18</title>
<path fill="none" stroke="#000000" d="M896.1507,-81.5998C936.0374,-67.7261 1015.2177,-40.1851 1055.0032,-26.3467"/>
</g>
<!-- v14&#45;&#45;v19 -->
<g id="edge56" class="edge">
<title>v14&#45;&#45;v19</title>
<path fill="none" stroke="#000000" d="M886.538,-74.3771C897.7761,-62.3003 913.2594,-45.6616 924.4904,-33.5924"/>
</g>
<!-- v2&#45;&#45;v3 -->
<g id="edge15" class="edge">
<title>v2&#45;&#45;v3</title>
<path fill="none" stroke="#000000" d="M376,-935.8314C376,-925 376,-911.2876 376,-900.4133"/>
</g>
<!-- v5&#45;&#45;v6 -->
<g id="edge26" class="edge">
<title>v5&#45;&#45;v6</title>
<path fill="none" stroke="#000000" d="M524.5234,-719.8314C526.0278,-709 527.9323,-695.2876 529.4426,-684.4133"/>
</g>
<!-- v7&#45;&#45;v8 -->
<g id="edge32" class="edge">
<title>v7&#45;&#45;v8</title>
<path fill="none" stroke="#000000" d="M598.1328,-577.3008C605.8873,-565.669 616.1863,-550.2206 623.9276,-538.6087"/>
</g>
<!-- v9&#45;&#45;v10 -->
<g id="edge38" class="edge">
<title>v9&#45;&#45;v10</title>
<path fill="none" stroke="#000000" d="M739.3146,-432.2022C735.7761,-421.1252 731.2409,-406.928 727.6997,-395.8425"/>
</g>
<!-- v9&#45;&#45;v14 -->
<g id="edge39" class="edge">
<title>v9&#45;&#45;v14</title>
<path fill="none" stroke="#000000" d="M769.0512,-441.6424C814.3924,-424.1788 908,-379.2542 908,-306 908,-306 908,-306 908,-234 908,-187.0997 889.8044,-134.1035 879.2851,-107.384"/>
</g>
<!-- v11&#45;&#45;v12 -->
<g id="edge45" class="edge">
<title>v11&#45;&#45;v12</title>
<path fill="none" stroke="#000000" d="M790.5234,-287.8314C792.0278,-277 793.9323,-263.2876 795.4426,-252.4133"/>
</g>
<!-- v13&#45;&#45;v14 -->
<g id="edge51" class="edge">
<title>v13&#45;&#45;v14</title>
<path fill="none" stroke="#000000" d="M857.6966,-144.2022C860.6197,-133.1252 864.3662,-118.928 867.2916,-107.8425"/>
</g>
<!-- IWO8 -->
<g id="node21" class="node">
<title>IWO8</title>
<ellipse fill="#ffff00" stroke="#000000" cx="700" cy="-1098" rx="33.5952" ry="18"/>
<text text-anchor="middle" x="700" y="-1094.3" font-family="Times,serif" font-size="14.00" fill="#000000">IWO8</text>
</g>
<!-- V8 -->
<g id="node22" class="node">
<title>V8</title>
<ellipse fill="#ffff00" stroke="#000000" cx="779" cy="-1098" rx="27" ry="18"/>
<text text-anchor="middle" x="779" y="-1094.3" font-family="Times,serif" font-size="14.00" fill="#000000">V8</text>
</g>
</g>
</svg>
